<svg xmlns="http://www.w3.org/2000/svg" viewBox="0 0 70 70">
  <path d="M22 32H11A11 11 0 1 1 22 21Z" fill="#ed1e79"/>
  <path d="M34 0H64Q70 0 70 6V26Q70 32 64 32H28V6Q28 0 34 0Z" fill="#92c83e"/>
  <path d="M6 38H42V64Q42 70 36 70H6Q0 70 0 64V44Q0 38 6 38Z" fill="#ffb339"/>
  <path d="M49 38H59.5A10.5 10.5 0 1 1 49 48.5Z" fill="#3fa9f5"/>
  <g fill="#fff"><circle cx="38" cy="16" r="2.5"/><circle cx="48" cy="16" r="2.5"/><circle cx="58" cy="16" r="2.5"/><circle cx="10" cy="54" r="2.5"/><circle cx="20" cy="54" r="2.5"/><circle cx="30" cy="54" r="2.5"/></g>
</svg>
